<svg xmlns="http://www.w3.org/2000/svg" width="71.364" height="66.405"><defs><clipPath id="a"><path data-name="Rectangle 22519" fill="#2e2e2e" stroke="#000" stroke-width=".2" d="M0 0h71.364v66.405H0z"/></clipPath></defs><g data-name="Group 42227" clip-path="url(#a)" fill="#2e2e2e" stroke="#000" stroke-width=".2"><path data-name="Path 100941" d="M33.397 62.642a.915.915 0 0 0 .916-.916V55.65a.916.916 0 0 0-.916-.916h-7.272a.916.916 0 0 0-.916.916v6.076a.916.916 0 0 0 1.831 0v-5.16h5.441v5.16a.915.915 0 0 0 .915.916"/><path data-name="Path 100942" d="M44.947 62.642a.915.915 0 0 0 .916-.915V49.663a.915.915 0 0 0-.916-.916h-7.272a.916.916 0 0 0-.916.916v12.064a.916.916 0 0 0 1.831 0V50.578h5.441v11.149a.915.915 0 0 0 .915.915"/><path data-name="Path 100943" d="M9.483 61.777v-.054a.916.916 0 1 0 1.831 0v-.862a.916.916 0 0 0-.916-.916H3.127a.916.916 0 0 0-.916.916v.862a.916.916 0 1 0 1.831 0v.054Z"/><path data-name="Path 100944" d="M21.947 62.637a.916.916 0 0 0 .916-.916v-3.856a.916.916 0 0 0-.916-.916h-7.275a.916.916 0 0 0-.916.916v3.856a.916.916 0 0 0 1.831 0V58.78h5.441v2.941a.916.916 0 0 0 .916.916"/><path data-name="Path 100945" d="M56.497 62.642a.915.915 0 0 0 .915-.916v-24.3a.915.915 0 0 0-.915-.916h-7.272a.915.915 0 0 0-.915.916v24.3a.916.916 0 1 0 1.831 0V38.339h5.441v23.387a.915.915 0 0 0 .915.916"/><path data-name="Path 100946" d="M59.858 16.931v44.8a.916.916 0 0 0 1.831 0V17.846h5.441v43.881a.915.915 0 1 0 1.831 0v-44.8a.915.915 0 0 0-.915-.915h-7.272a.916.916 0 0 0-.916.915"/><path data-name="Path 100947" d="M70.449 64.573H.916a.916.916 0 0 0 0 1.831h69.533a.916.916 0 0 0 0-1.831"/><path data-name="Path 100948" d="M28.752 42.859a.916.916 0 1 0 .7 1.692 32.588 32.588 0 0 0 3.6-1.86 51.776 51.776 0 0 0 8.184-5.966 49.64 49.64 0 0 0 9.127-10.782 48.027 48.027 0 0 0 6.358-16.2.94.94 0 0 0 .024-.114.917.917 0 0 0-.926-1.056l-3.235-.46 4.218-5.385 3.143 7.814a.916.916 0 1 0 1.7-.683L57.902.574a.915.915 0 0 0-1.57-.223l-6.173 7.877a.916.916 0 0 0 .592 1.471l3.987.566A46.728 46.728 0 0 1 40.066 35.31a49.96 49.96 0 0 1-7.888 5.767 31.754 31.754 0 0 1-3.43 1.782"/></g></svg>