<svg width="198" height="48" viewBox="0 0 198 48" fill="none" xmlns="http://www.w3.org/2000/svg">
<path d="M179.656 40.9745C176.85 42.1741 173.849 42.8662 170.795 43.0178C165.566 43.0178 160.179 41.0846 158.867 33.2675C158.414 30.9544 158.506 28.5693 159.136 26.2967C159.765 24.0242 160.916 21.9249 162.498 20.1612C162.747 19.8423 162.794 19.7418 163.247 20.0789C167.673 23.0979 172.856 22.4506 181.457 22.441C189.588 22.441 190.918 28.3421 191.048 28.999C191.56 29.3672 192.028 29.7916 192.443 30.2641C192.6 25.1932 191.343 17.8415 179.619 18.2799C172.228 18.1525 166.25 18.5988 164.578 17.8605C165.213 17.141 165.929 16.4953 166.712 15.936C168.264 14.7141 168.79 15.6717 170.047 16.8484C170.168 16.6569 170.407 16.2375 169.788 14.176C169.594 13.5287 170.352 13.3641 172.034 12.352C174.029 11.2388 176.102 10.2673 178.237 9.44473C180.783 8.37803 178.866 9.16224 187.191 5.79662C188.116 5.45 188.171 4.68398 189.039 2.24382C189.316 1.40501 188.734 1.53239 187.912 1.41368C180.184 0.490531 172.407 0.0321541 164.623 0.0410862C162.887 -0.143311 161.141 0.29699 159.707 1.2811C158.776 1.79363 158.049 2.60463 157.648 3.58002C157.593 4.04535 157.121 7.35551 159.228 8.7879C160.253 9.4534 162.924 11.1501 165.428 12.7367C165.714 12.9005 165.881 13.001 165.669 13.3112C164.602 14.2013 163.669 15.2362 162.897 16.3848C162.776 16.5763 162.444 17.078 161.972 16.8319C161.501 16.5859 160.698 16.2661 159.514 15.6734C159.672 16.5073 160.089 17.2721 160.706 17.8623C161.076 18.2175 161.409 18.455 160.882 19.2123C159.339 20.9055 156.89 27.3396 157.047 32.4929C157.416 44.5048 165.778 47.8973 170.906 47.8973C175.636 47.8973 179.646 45.581 182.917 43.3367C181.652 42.8214 180.533 42.0108 179.656 40.9745ZM160.769 5.94219C160.494 5.7429 160.207 5.56003 159.909 5.39454C159.53 5.12072 159.78 4.7741 160.251 4.70132C160.721 4.62853 162.699 4.06268 169.342 4.31831C172.475 4.40063 176.836 4.78364 178.314 4.92921C178.942 5.01154 179.127 5.14845 179.173 5.20304C177.621 6.41619 173.214 8.06261 171.052 9.57211C168.677 10.9222 168.538 11.6882 167.458 10.6943C166.111 9.61804 162.859 7.22813 160.769 5.94219Z" fill="white"/>
<path d="M190.221 30.0428C188.997 29.044 187.461 28.4946 185.873 28.4882C184.97 28.4846 184.074 28.6572 183.238 28.9961C182.402 29.335 181.642 29.8335 181.002 30.463C179.877 31.5689 179.175 33.0255 179.016 34.5847C178.856 36.144 179.249 37.7095 180.128 39.0148C181.007 40.32 182.316 41.2843 183.834 41.7434C185.352 42.2026 186.984 42.1282 188.453 41.5329C188.53 41.5019 188.605 41.4695 188.68 41.4359L185.532 34.2611L192.406 37.2601C192.737 36.1997 192.801 35.0684 192.583 33.9662C192.279 32.4281 191.444 31.0416 190.221 30.0428Z" fill="white"/>
<path fill-rule="evenodd" clip-rule="evenodd" d="M187.066 35.9491L197.543 40.4273L194.475 42.3788L197.542 45.5529L196.646 46.474L193.385 43.3727L191.953 46.474L187.066 35.9491Z" fill="white"/>
<path fill-rule="evenodd" clip-rule="evenodd" d="M188.04 37L192.165 45.765L193.478 43.0198L196.841 46.3031L197.266 45.8837L194.165 42.5545L196.845 40.8301L188.04 37Z" fill="white"/>
<path d="M3.90866 37.1462V38.3161H5.04371V37.1462H3.90866ZM1.92755 37.1462V38.3161H3.0757V37.1462H1.92755Z" fill="white"/>
<path d="M16.1784 46.0389V47.1975H17.3135V46.0389H16.1784ZM14.1973 46.0389V47.1975H15.3455V46.0389H14.1973Z" fill="white"/>
<path d="M20.5824 38.0629V39.2111H21.7306V38.0629H20.5824Z" fill="white"/>
<path d="M20.5719 40.1811V42.6259C20.5856 42.8784 20.5561 43.1315 20.4846 43.3741C20.4109 43.5001 20.3014 43.6013 20.1701 43.6651C20.0387 43.7288 19.8914 43.7521 19.7468 43.7321H17.1371C17.3532 43.3671 17.4451 42.9419 17.399 42.5202V40.1811H16.2098V42.5813C16.2225 42.8472 16.1794 43.1128 16.0832 43.361C16.0114 43.4844 15.9057 43.5847 15.7787 43.65C15.6516 43.7153 15.5086 43.7429 15.3664 43.7295H6.32022C5.54052 43.7295 5.13976 43.2763 5.13976 42.4652V39.1587H2.57017C1.23167 39.1587 0.410068 40.1279 0.410068 41.6977C0.374678 42.0029 0.404091 42.312 0.496385 42.605C0.588678 42.898 0.741774 43.1682 0.945661 43.398C1.14955 43.6278 1.39963 43.8119 1.67957 43.9384C1.95951 44.0649 2.26299 44.1308 2.57017 44.132C2.84179 44.1238 3.10694 44.0471 3.34095 43.9089C3.57497 43.7708 3.77026 43.5757 3.90866 43.3418C3.9979 43.777 4.23394 44.1684 4.57726 44.4503C4.92058 44.7323 5.35034 44.8878 5.7946 44.8907H19.9931C21.1517 44.8907 21.7393 44.2691 21.7393 43.0048V40.1593L20.5719 40.1811ZM3.94009 41.5825C3.94009 42.4678 3.47646 43.1838 2.71772 43.1838C1.95898 43.1838 1.55909 42.4853 1.55909 41.6873C1.55909 40.7181 2.07511 40.065 2.88711 40.065H3.94096L3.94009 41.5825Z" fill="white"/>
<path d="M27.2277 44.7641C27.2277 46.0074 26.4795 46.6396 24.962 46.6396V45.7123C25.6998 45.7123 26.0159 45.1963 26.0787 44.3843C25.965 44.5569 25.8076 44.6964 25.6225 44.7884C25.4373 44.8804 25.2311 44.9217 25.0249 44.9082C24.5481 44.9334 24.0747 44.8146 23.6663 44.5673C23.2578 44.3201 22.9331 43.9557 22.7344 43.5216C22.5356 43.0874 22.472 42.6036 22.5518 42.1328C22.6315 41.6621 22.8509 41.2262 23.1816 40.8817C23.5122 40.5372 23.9388 40.3001 24.4059 40.2012C24.873 40.1022 25.359 40.146 25.8009 40.3268C26.2428 40.5076 26.6202 40.8171 26.884 41.2151C27.1477 41.6131 27.2858 42.0812 27.2801 42.5586L27.2277 44.7641ZM26.0263 42.5813C26.0263 41.7702 25.5941 41.2219 24.9201 41.2219C24.246 41.2219 23.8662 41.8226 23.8662 42.5315C23.8472 42.6881 23.8594 42.8469 23.9022 42.9987C23.945 43.1505 24.0175 43.2923 24.1155 43.4159C24.2136 43.5394 24.3352 43.6423 24.4733 43.7184C24.6114 43.7946 24.7633 43.8426 24.9201 43.8596C25.0786 43.8547 25.2344 43.8172 25.3776 43.7492C25.5209 43.6812 25.6485 43.5842 25.7524 43.4645C25.8563 43.3447 25.9343 43.2047 25.9815 43.0533C26.0286 42.9019 26.0439 42.7424 26.0263 42.5848V42.5813Z" fill="white"/>
<path d="M33.9962 38.0411V39.1997H35.0518V38.0411H33.9962ZM32.0046 38.0411V39.1997H33.1527V38.0411H32.0046Z" fill="white"/>
<path d="M47.3881 38.1782V43.0781C47.3881 44.3424 46.7979 44.9641 45.6287 44.9641H30.55C30.371 46.0913 29.4228 46.692 28.0109 46.692V45.6364C28.9801 45.6364 29.4542 45.1623 29.4542 44.1608V40.1802H30.6242V43.7312H33.1003C33.2412 43.7452 33.383 43.7178 33.5085 43.6523C33.6339 43.5869 33.7376 43.4862 33.8067 43.3628C33.9077 43.115 33.9501 42.8473 33.9307 42.5805V40.1802H35.0474V42.5193C35.0903 42.9398 35.0019 43.3632 34.7942 43.7312H42.1703C42.2144 43.1214 42.0388 42.5159 41.6753 42.0243C41.4556 41.7604 41.1774 41.5515 40.8626 41.4143C40.5479 41.2771 40.2055 41.2154 39.8627 41.2341H37.4625L39.5702 38.1363H40.9506L39.5483 40.1357H40.0539C40.5226 40.119 40.9895 40.2019 41.4239 40.3789C41.8582 40.5558 42.2501 40.8229 42.5737 41.1624C42.8973 41.5019 43.1452 41.9062 43.3011 42.3485C43.4571 42.7908 43.5174 43.2612 43.4782 43.7286H45.386C45.5321 43.7494 45.6811 43.7265 45.8143 43.6628C45.9474 43.5991 46.0588 43.4974 46.1343 43.3706C46.194 43.1259 46.2187 42.874 46.2076 42.6224V38.1782H47.3881Z" fill="white"/>
<path d="M53.4152 38.1782V43.2781C53.4188 43.5111 53.3722 43.7421 53.2785 43.9555C53.1849 44.1689 53.0463 44.3595 52.8723 44.5145C52.6983 44.6696 52.493 44.7853 52.2703 44.8538C52.0476 44.9223 51.8127 44.9421 51.5817 44.9117H48.421V43.7225H50.0223L48.7475 38.9204H49.9804L51.2901 43.7225C51.5453 43.7441 51.7989 43.6648 51.9964 43.5016C52.1138 43.3547 52.2004 43.1857 52.2511 43.0047C52.3018 42.8236 52.3155 42.6342 52.2915 42.4478V38.1782H53.4152ZM50.3279 47.05H48.517V46.5759H48.9387C48.8952 46.4564 48.8633 46.333 48.8436 46.2074C48.8377 45.9856 48.9196 45.7703 49.0714 45.6085C49.2233 45.4466 49.4329 45.3512 49.6547 45.343C49.8008 45.3438 49.943 45.3897 50.0618 45.4746C50.1807 45.5595 50.2703 45.6792 50.3183 45.8171L49.9393 45.9961C49.9292 45.9278 49.8925 45.8663 49.8372 45.825C49.782 45.7836 49.7126 45.7657 49.6442 45.7752C49.5451 45.7828 49.4529 45.8291 49.3875 45.9041C49.3222 45.9791 49.289 46.0767 49.295 46.176C49.2879 46.2536 49.3017 46.3317 49.3351 46.4022C49.3684 46.4727 49.42 46.5329 49.4844 46.5767H50.327L50.3279 47.05Z" fill="white"/>
<path d="M55.6723 44.9108H54.511V38.1677H55.6723V44.9108Z" fill="white"/>
<path d="M86.8803 38.0306V39.1788H88.0154V38.0306H86.8803ZM84.8992 38.0306V39.1788H86.0343V38.0306H84.8992Z" fill="white"/>
<path d="M86.47 40.0641C86.1519 40.0537 85.8351 40.1098 85.54 40.2288C85.2448 40.3478 84.9777 40.5271 84.7558 40.7553C84.5339 40.9834 84.3621 41.2554 84.2513 41.5537C84.1406 41.8521 84.0933 42.1703 84.1125 42.4879C84.1087 42.9202 84.2099 43.3469 84.4077 43.7312H81.8337C81.8337 41.3502 80.8855 40.1515 79.127 40.1515C78.5046 40.1839 77.899 40.3651 77.3611 40.6799C76.8231 40.9947 76.3685 41.4338 76.0353 41.9606L76.1829 38.1782H75.0373V43.7312H61.5606V40.1803H60.4011V44.1311C60.4311 44.3308 60.4141 44.5348 60.3513 44.7267C60.2885 44.9187 60.1818 45.0933 60.0395 45.2366C59.8973 45.38 59.7235 45.4881 59.532 45.5524C59.3406 45.6166 59.1368 45.6352 58.9369 45.6067V46.6606C60.3696 46.6606 61.3074 46.0599 61.4864 44.9327H86.47C86.7841 44.9417 87.0967 44.8857 87.3881 44.768C87.6795 44.6504 87.9433 44.4737 88.1631 44.249C88.3828 44.0243 88.5536 43.7566 88.6648 43.4627C88.776 43.1688 88.8251 42.855 88.8091 42.5412C88.8293 42.2223 88.7837 41.9027 88.6751 41.6022C88.5666 41.3017 88.3973 41.0268 88.1779 40.7945C87.9585 40.5623 87.6936 40.3776 87.3998 40.2521C87.106 40.1266 86.7895 40.0621 86.47 40.0641ZM80.6113 43.7312H75.948C76.6325 42.267 77.8549 41.1922 79.0144 41.1922C80.0683 41.1922 80.6262 42.0566 80.6262 43.3942C80.6218 43.499 80.6218 43.6046 80.6113 43.7312ZM86.4909 43.8369C86.3223 43.8278 86.1572 43.7847 86.0057 43.7102C85.8541 43.6357 85.7191 43.5313 85.6089 43.4034C85.4986 43.2754 85.4154 43.1265 85.3641 42.9656C85.3128 42.8047 85.2946 42.6351 85.3105 42.467C85.3105 41.6558 85.7531 41.1285 86.4272 41.1285C86.5974 41.1373 86.764 41.181 86.9166 41.2569C87.0692 41.3329 87.2046 41.4393 87.3143 41.5698C87.424 41.7002 87.5058 41.8518 87.5544 42.0152C87.6031 42.1785 87.6176 42.3501 87.5972 42.5194C87.6176 42.6796 87.6046 42.8424 87.559 42.9974C87.5135 43.1524 87.4363 43.2962 87.3324 43.4199C87.2284 43.5436 87.1 43.6444 86.9552 43.7161C86.8104 43.7877 86.6523 43.8294 86.4909 43.8369Z" fill="white"/>
<path d="M95.4788 37.1462V38.3161H96.6139V37.1462H95.4788ZM93.4977 37.1462V38.3161H94.6502V37.1462H93.4977Z" fill="white"/>
<path d="M112.504 40.9713C112.188 40.9611 111.873 41.0166 111.579 41.1343C111.286 41.252 111.02 41.4293 110.798 41.6551C110.577 41.8808 110.404 42.1501 110.292 42.4458C110.18 42.7416 110.13 43.0574 110.146 43.3733C110.141 43.4646 110.141 43.5561 110.146 43.6474V43.7103H97.8782C97.0985 43.7103 96.7082 43.2571 96.7082 42.446V39.1587H94.1403C92.8018 39.1587 91.9698 40.1279 91.9698 41.6977C91.9357 42.0035 91.9664 42.313 92.0598 42.6061C92.1533 42.8992 92.3074 43.1694 92.5121 43.399C92.7169 43.6286 92.9677 43.8126 93.2482 43.9388C93.5287 44.0651 93.8327 44.1309 94.1403 44.132C94.412 44.1238 94.6771 44.0471 94.9111 43.9089C95.1451 43.7708 95.3404 43.5757 95.4788 43.3418C95.5659 43.7762 95.7999 44.1673 96.1415 44.4494C96.483 44.7315 96.9113 44.8873 97.3543 44.8907H110.618C110.829 45.1921 111.112 45.4359 111.442 45.5997C111.771 45.7635 112.136 45.8422 112.504 45.8285C112.82 45.8363 113.135 45.7783 113.428 45.6581C113.721 45.538 113.986 45.3583 114.206 45.1304C114.426 44.9025 114.596 44.6315 114.706 44.3344C114.815 44.0374 114.862 43.7208 114.843 43.4047C114.859 43.0889 114.81 42.7731 114.699 42.4769C114.589 42.1807 114.418 41.9103 114.199 41.6823C113.98 41.4543 113.717 41.2735 113.425 41.1511C113.134 41.0286 112.82 40.968 112.504 40.9713ZM95.5103 41.5615C95.5103 42.4469 95.0466 43.1628 94.2774 43.1628C93.5082 43.1628 93.1293 42.4643 93.1293 41.6663C93.1293 40.6971 93.6243 40.044 94.4459 40.044H95.4998L95.5103 41.5615ZM112.536 44.7222C112.367 44.7156 112.201 44.6752 112.048 44.6033C111.895 44.5314 111.758 44.4296 111.645 44.3038C111.532 44.1781 111.446 44.0309 111.39 43.8711C111.335 43.7112 111.313 43.5419 111.324 43.3733C111.302 43.2077 111.315 43.0393 111.362 42.879C111.409 42.7187 111.489 42.5701 111.598 42.4429C111.706 42.3157 111.84 42.2126 111.991 42.1405C112.141 42.0684 112.305 42.0288 112.472 42.0243C112.642 42.0332 112.807 42.0767 112.959 42.1519C113.111 42.2272 113.246 42.3327 113.355 42.462C113.465 42.5913 113.547 42.7416 113.596 42.9037C113.646 43.0658 113.661 43.2363 113.642 43.4047C113.642 44.2263 113.189 44.7641 112.536 44.7641V44.7222Z" fill="white"/>
<path d="M135.21 40.7495C134.616 40.3604 133.918 40.1618 133.208 40.1803C132.734 40.1831 132.265 40.2798 131.828 40.4649C131.417 40.6506 131.039 40.9035 130.711 41.2132C130.973 41.6139 131.164 41.9116 131.28 42.1194C131.541 41.8358 131.861 41.6128 132.218 41.4664C132.495 41.3499 132.791 41.2856 133.091 41.2769C133.432 41.2583 133.773 41.3201 134.086 41.4574C134.399 41.5946 134.676 41.8035 134.893 42.0671C135.259 42.5435 135.449 43.1318 135.43 43.7321H128.467C128.499 43.2667 128.432 42.7998 128.271 42.3619C128.111 41.9239 127.86 41.5245 127.535 41.1897C127.21 40.8549 126.818 40.5921 126.386 40.4184C125.953 40.2446 125.488 40.1638 125.022 40.1811H124.516L125.928 38.1791H124.494L122.388 41.2778H124.801C125.142 41.2592 125.483 41.321 125.796 41.4583C126.109 41.5955 126.385 41.8043 126.603 42.0679C126.988 42.536 127.19 43.1274 127.172 43.733H120.345V42.5193C120.369 42.2194 120.33 41.9177 120.232 41.6332C120.134 41.3487 119.978 41.0876 119.775 40.8662C119.571 40.6448 119.323 40.468 119.048 40.3468C118.772 40.2256 118.475 40.1626 118.174 40.1619C117.864 40.1485 117.555 40.1995 117.266 40.3117C116.977 40.4238 116.714 40.5947 116.494 40.8135C116.274 41.0323 116.102 41.2943 115.989 41.5829C115.875 41.8716 115.823 42.1806 115.835 42.4905C115.824 42.8 115.875 43.1086 115.984 43.3983C116.094 43.6881 116.259 43.9532 116.472 44.1784C116.685 44.4035 116.94 44.5842 117.223 44.7099C117.506 44.8357 117.811 44.904 118.121 44.9108H119.237C119.179 45.1656 119.028 45.3897 118.814 45.5396C118.6 45.6895 118.338 45.7545 118.079 45.7219V46.6387C119.438 46.6387 120.186 46.0694 120.355 44.9108H136.697V44.1835C136.767 43.5316 136.667 42.8728 136.407 42.271C136.146 41.6692 135.735 41.1448 135.213 40.7486L135.21 40.7495ZM119.174 43.7312H118.121C117.799 43.7043 117.502 43.5515 117.293 43.3062C117.084 43.061 116.98 42.743 117.004 42.4215C116.987 42.1321 117.086 41.8478 117.279 41.6313C117.472 41.4147 117.743 41.2836 118.032 41.2668C118.322 41.2501 118.606 41.3489 118.822 41.5418C119.039 41.7346 119.17 42.0055 119.187 42.2949L119.174 43.7312Z" fill="white"/>
<path d="M11.6974 29.3806V32.7631H15.0379V29.3806H11.6974ZM5.94438 29.3806V32.7631H9.29716V29.3806H5.94438Z" fill="white"/>
<path d="M56.7847 9.55034C55.8627 9.51852 54.9441 9.67864 54.0873 10.0205C53.2304 10.3624 52.4539 10.8786 51.807 11.5364C51.1601 12.1942 50.657 12.9792 50.3295 13.8417C50.002 14.7042 49.8573 15.6253 49.9045 16.5466C49.8888 16.8203 49.8888 17.0946 49.9045 17.3683V17.5263H25.4787C23.7403 17.5263 22.5494 16.6409 21.2641 14.3656C20.712 13.2483 19.8509 12.3129 18.783 11.6705C17.7152 11.0281 16.4853 10.7056 15.2396 10.7413H13.8889V13.8452C14.0713 13.8293 14.2548 13.8293 14.4372 13.8452C14.8598 13.8252 15.2818 13.8964 15.6745 14.0538C16.0672 14.2113 16.4215 14.4514 16.7132 14.7578C17.005 15.0642 17.2274 15.4298 17.3655 15.8297C17.5035 16.2297 17.5539 16.6546 17.5132 17.0758C17.5132 20.1841 14.521 22.7973 10.5693 22.7973C6.15479 22.7973 3.41494 19.847 3.41494 15.127V12.071H0.00104086V15.4849C-0.0185517 16.8691 0.238634 18.2431 0.757492 19.5265C1.27635 20.8098 2.04642 21.9766 3.02247 22.9581C3.99852 23.9397 5.16088 24.7164 6.44127 25.2425C7.72166 25.7686 9.09427 26.0335 10.4785 26.0217C15.4413 26.0217 19.5188 23.0296 20.4993 18.2877C21.774 20.2085 22.7755 20.8476 25.7677 20.9428H51.236C51.8589 21.8182 52.6896 22.525 53.6535 22.9996C54.6173 23.4742 55.684 23.7017 56.7577 23.6617C57.6768 23.6834 58.5906 23.5148 59.4415 23.1665C60.2924 22.8182 61.0621 22.2978 61.7023 21.6378C62.3425 20.9779 62.8393 20.1927 63.1616 19.3316C63.4838 18.4705 63.6246 17.5521 63.575 16.634C63.6163 15.7179 63.4713 14.8031 63.1487 13.9447C62.8261 13.0864 62.3327 12.3025 61.6982 11.6404C61.0638 10.9784 60.3016 10.452 59.4578 10.0932C58.6139 9.7344 57.706 9.55061 56.7891 9.55296L56.7847 9.55034ZM56.872 20.5298C54.8385 20.5298 53.4057 18.8019 53.4057 16.5135C53.4057 14.225 54.7757 12.615 56.693 12.615C58.6104 12.615 60.0982 14.3534 60.0982 16.6715C60.0982 18.9896 58.7554 20.5298 56.8694 20.5298H56.872Z" fill="white"/>
<path d="M133.02 8.84395C131.568 7.90925 129.909 7.34547 128.189 7.20221C126.469 7.05894 124.739 7.34058 123.153 8.02235C121.951 8.5532 120.85 9.2875 119.897 10.1929C120.656 11.3411 121.207 12.2159 121.542 12.8586C122.297 12.0219 123.234 11.3696 124.281 10.9517C125.083 10.5886 125.951 10.3914 126.831 10.3719C127.828 10.3176 128.825 10.4982 129.74 10.8989C130.655 11.2997 131.463 11.9096 132.099 12.6796C133.171 14.0631 133.727 15.7771 133.671 17.5263H113.327C113.053 13.3114 111.529 10.3472 108.755 8.63353C107.072 7.63883 105.146 7.13186 103.191 7.16931H101.695L105.804 1.36393H101.757L95.7574 10.4138H102.785C103.782 10.3655 104.776 10.5487 105.69 10.9491C106.604 11.3495 107.413 11.9561 108.054 12.7215C109.163 14.089 109.746 15.8082 109.698 17.5682H79.6823V13.9884C79.6823 10.0052 77.069 7.13962 73.36 7.13962C72.4589 7.10295 71.5599 7.25236 70.7191 7.57852C69.8783 7.90469 69.1137 8.40061 68.4731 9.03536C67.8324 9.67011 67.3294 10.4301 66.9955 11.2678C66.6616 12.1056 66.5039 13.0032 66.5322 13.9046C66.5014 14.8034 66.6486 15.6994 66.9656 16.541C67.2825 17.3827 67.7629 18.1533 68.379 18.8085C68.995 19.4637 69.7347 19.9905 70.5552 20.3586C71.3758 20.7267 72.2611 20.9288 73.1601 20.9533H76.4151C76.2254 21.6826 75.7814 22.3201 75.1631 22.7509C74.5448 23.1817 73.7929 23.3775 73.0431 23.3028V25.9894C76.9939 25.9894 79.2178 24.3139 79.6709 20.9533H137.343V18.8438C137.34 14.0809 135.906 10.7622 133.02 8.84395ZM76.2256 17.5263H73.2229C72.7578 17.4906 72.3043 17.3636 71.8883 17.1527C71.4723 16.9417 71.1019 16.6508 70.7983 16.2966C70.4948 15.9425 70.2639 15.5319 70.1191 15.0885C69.9742 14.6452 69.9181 14.1776 69.954 13.7125C69.9143 13.2632 69.9713 12.8106 70.1211 12.3851C70.2709 11.9596 70.5101 11.5712 70.8225 11.2458C71.1349 10.9204 71.5133 10.6657 71.9323 10.4987C72.3513 10.3317 72.8012 10.2563 73.2517 10.2776C75.0111 10.2776 76.0457 11.5524 76.2204 13.344L76.2256 17.5263Z" fill="white"/>
</svg>
