<svg xmlns="http://www.w3.org/2000/svg" width="44.37" height="44.407"><g fill="#891538" stroke="#891538" stroke-width=".3"><path d="M44.211 28.997a15.84 15.84 0 0 1-1.373 6.467 1.559 1.559 0 0 0-.108.895c.462 2.224.96 4.441 1.443 6.661.188.864-.22 1.269-1.091 1.084-2.207-.468-4.411-.948-6.622-1.4a1.555 1.555 0 0 0-.9.079 14.977 14.977 0 0 1-21.046-10.925 13.043 13.043 0 0 1-.173-1.361c-.02-.267-.1-.4-.384-.419a15.144 15.144 0 0 1-5.229-1.4 1.18 1.18 0 0 0-.682-.013c-2.24.465-4.476.945-6.714 1.419-.8.17-1.218-.241-1.048-1.042.474-2.238.959-4.474 1.414-6.716a1.478 1.478 0 0 0-.09-.853 14.977 14.977 0 1 1 28.4-8.517c.059.418 0 .959.236 1.215.218.233.768.156 1.171.216A14.932 14.932 0 0 1 44.134 27.85c.042.456.062.913.077 1.148m-42.237-.635c.181-.016.275-.016.364-.035 1.851-.393 3.705-.773 5.55-1.192a2.193 2.193 0 0 1 1.542.173 12.98 12.98 0 0 0 7.554 1.2 13.462 13.462 0 1 0-14-18.978 13.273 13.273 0 0 0 .135 11.579 1.729 1.729 0 0 1 .177.94c-.147.918-.372 1.823-.564 2.733-.248 1.169-.494 2.339-.755 3.578m40.464 14.065c-.042-.235-.063-.373-.092-.509-.394-1.867-.777-3.738-1.194-5.6a1.719 1.719 0 0 1 .161-1.223 12.912 12.912 0 0 0 1.354-5.183 13.507 13.507 0 0 0-9.2-13.477 11.274 11.274 0 0 0-3.207-.631c-.221 1.166-.361 2.3-.664 3.386s-.767 2.121-1.176 3.218h7.263a2.266 2.266 0 0 1 .563.049.683.683 0 0 1 .549.731.693.693 0 0 1-.631.713 3.34 3.34 0 0 1-.52.02c-2.622 0-5.245.006-7.867-.006a.783.783 0 0 0-.709.347 14.749 14.749 0 0 1-4.412 3.889c-.123.071-.239.155-.452.293H35.842c.606 0 .953.27.966.737.014.484-.348.776-.973.778H22.661c-.383 0-.775-.026-.91-.431a2.975 2.975 0 0 1-.017-.888 15.448 15.448 0 0 1-5.957 1.51 13.282 13.282 0 0 0 6.375 10.45 13.079 13.079 0 0 0 13.025.678 1.784 1.784 0 0 1 .94-.183c.794.117 1.575.321 2.362.489 1.292.275 2.585.548 3.963.84"/><path d="M18.331 12.548a3.7 3.7 0 0 1-1.752 3.1c-.453.316-.922.609-1.39.9a.678.678 0 0 0-.35.673 1.519 1.519 0 0 1-.042.547.61.61 0 0 1-.65.444.6.6 0 0 1-.629-.526 1.968 1.968 0 0 1 .631-2.04c.337-.258.7-.481 1.052-.718.212-.142.433-.272.638-.422a2.57 2.57 0 0 0 .959-3.153 2.811 2.811 0 0 0-5.4.488c-.028.168-.043.337-.062.506a.666.666 0 0 1-.719.671.682.682 0 0 1-.632-.8 4.065 4.065 0 0 1 2.25-3.565 4.182 4.182 0 0 1 6.09 3.891M15.068 21.012a.74.74 0 0 1-.752.7.721.721 0 0 1 .032-1.441.744.744 0 0 1 .719.738M29.585 35.972h-5.832a1.64 1.64 0 0 1-.5-.056.615.615 0 0 1-.451-.687.625.625 0 0 1 .564-.6 2.748 2.748 0 0 1 .425-.017h11.706c.611.005.93.247.917.693-.012.428-.333.668-.91.668h-5.917"/></g></svg>