<svg xmlns="http://www.w3.org/2000/svg" width="15.76" height="15.758"><g stroke="#000" stroke-width=".1"><path data-name="Path 101983" d="M6.471 15.708a1.678 1.678 0 0 0 1.186-.492l7.561-7.555a1.678 1.678 0 0 0 .492-1.186V1.728A1.678 1.678 0 0 0 14.032.05H9.284a1.678 1.678 0 0 0-1.186.492L.543 8.1a1.678 1.678 0 0 0 0 2.377l4.742 4.742a1.678 1.678 0 0 0 1.186.492Zm7.561-14.54a.559.559 0 0 1 .559.559v4.748a.559.559 0 0 1-.168.4l-7.555 7.553a.559.559 0 0 1-.788 0L1.332 9.68a.559.559 0 0 1 0-.788l7.555-7.556a.559.559 0 0 1 .4-.168Z"/><path data-name="Path 101984" d="M11.236 6.761a2.237 2.237 0 1 0-2.237-2.237 2.237 2.237 0 0 0 2.237 2.237Zm0-3.355a1.118 1.118 0 1 1-1.119 1.118 1.118 1.118 0 0 1 1.119-1.119Z"/></g></svg>