<svg xmlns="http://www.w3.org/2000/svg" width="38.338" height="39.049"><g fill="#891538"><path d="M20.027 0c.889.118 1.785.2 2.668.358a19.085 19.085 0 0 1 15.142 14.518 18.746 18.746 0 0 1-3.453 15.9.584.584 0 0 0-.085.68c.854 1.981 1.683 3.972 2.532 5.955a1.082 1.082 0 0 1-.05 1.223 1.157 1.157 0 0 1-1.211.382q-4.8-.867-9.606-1.7a1.7 1.7 0 0 0-.787.056A19.158 19.158 0 1 1 15.425.4c.982-.2 1.987-.27 2.982-.4Zm14.324 36.737c-.748-1.744-1.443-3.419-2.186-5.071a1.405 1.405 0 0 1 .222-1.644 16.559 16.559 0 0 0 3.468-14.485 17.109 17.109 0 0 0-33.57.62 16.242 16.242 0 0 0 4.858 15.208c5.064 4.905 11.1 6.093 17.8 3.983a1.856 1.856 0 0 1 .788-.1c.89.127 1.773.3 2.659.453l5.96 1.033"/><path d="M19.08 26.356h-5.8c-.675 0-1.086-.3-1.178-.813a.991.991 0 0 1 .779-1.181 1.854 1.854 0 0 1 .4-.033h11.7c.689 0 1.111.313 1.185.858a.966.966 0 0 1-.874 1.144 9.8 9.8 0 0 1-1.123.026h-5.084M19.174 18.285h5.712a2.778 2.778 0 0 1 .449.016 1 1 0 0 1 .837 1.016.971.971 0 0 1-.887.963 3.139 3.139 0 0 1-.359.015h-11.6a1.859 1.859 0 0 1-.658-.1.965.965 0 0 1-.564-1.108 1 1 0 0 1 1.049-.8c2.009-.006 4.018 0 6.027 0M19.126 12.237c1.994 0 3.988-.006 5.982 0a1 1 0 0 1 1.029 1.287 1.016 1.016 0 0 1-1.074.711H13.188a1.005 1.005 0 1 1 0-2c1.979-.006 3.958 0 5.937 0"/></g></svg>