<svg xmlns="http://www.w3.org/2000/svg" width="38.166" height="43.108"><path d="M37.667 23.58c-.07.466-.119.937-.215 1.4a9.2 9.2 0 0 1-4.17 6.02 8.01 8.01 0 0 1-7.687 8.109c-.573.024-1.149.029-1.722.005a.5.5 0 0 0-.6.422 4.457 4.457 0 0 1-4.33 3.073 4.491 4.491 0 1 1 4.526-5.1l.076.6c4.926.672 8.281-2.3 8.753-6.311a1.323 1.323 0 0 0 0-.178c-.774.211-1.525.443-2.291.614a7.878 7.878 0 0 1-1.367.138c-.512.022-.661-.138-.665-.663-.006-.675 0-1.35 0-2.025V14.946c0-.854.121-.963.986-.9a9.762 9.762 0 0 1 6.25 2.832c-.055-.582-.082-1.168-.169-1.745A16.25 16.25 0 0 0 21.801 1.735a16.38 16.38 0 0 0-17.947 9.293 15.9 15.9 0 0 0-1.425 6.165c0 .081.007.163.014.327l.351-.393a9.143 9.143 0 0 1 6.5-3.1c.7-.04.83.093.83.8v16.721c0 .746-.1.837-.858.814a9.182 9.182 0 0 1-8.757-9.488 10.151 10.151 0 0 1 .692-3.223 3.5 3.5 0 0 0 .242-1.283 16.859 16.859 0 0 1 1.47-7.585A16.73 16.73 0 0 1 16.718.645 17.358 17.358 0 0 1 34.95 11.153a17.051 17.051 0 0 1 1.251 6.556 2.255 2.255 0 0 0 .261 1 9.49 9.49 0 0 1 1.13 3.719 3.235 3.235 0 0 0 .072.374ZM9.141 31.362V15.069c-3.491-.335-7.411 3.54-7.665 7.474a8.193 8.193 0 0 0 7.665 8.819m19.839-.005a8.162 8.162 0 0 0 0-16.294Zm-9.94 10.178a3.5 3.5 0 1 0-3.482-3.526 3.5 3.5 0 0 0 3.482 3.523" fill="#891538" stroke="#891538"/></svg>