<svg xmlns="http://www.w3.org/2000/svg" width="50.931" height="59.455"><defs><clipPath id="a"><path data-name="Rectangle 22518" fill="none" d="M0 0h50.931v59.455H0z"/></clipPath></defs><g data-name="Group 42225" clip-path="url(#a)" fill="#222221"><path data-name="Path 100935" d="M25.465 18.538a6.933 6.933 0 1 0-4.9-2.031 6.887 6.887 0 0 0 4.9 2.031m0-11.673a4.74 4.74 0 1 1-4.74 4.74 4.746 4.746 0 0 1 4.74-4.74"/><path data-name="Path 100936" d="M15.489 39.715a3.35 3.35 0 0 0 3.346 3.346c.088 0 .176 0 .264-.01l.7 12.676a3.746 3.746 0 0 0 3.742 3.729h3.849a3.746 3.746 0 0 0 3.742-3.729l.7-12.676q.132.01.264.01a3.35 3.35 0 0 0 3.346-3.346V26.022a5.83 5.83 0 0 0-1.719-4.149 5.83 5.83 0 0 0-4.149-1.719h-8.217a5.868 5.868 0 0 0-5.868 5.868Zm2.193-13.693a3.679 3.679 0 0 1 3.675-3.675h8.217a3.679 3.679 0 0 1 3.675 3.675v13.693a1.154 1.154 0 0 1-1.153 1.153 1.141 1.141 0 0 1-.235-.024v-10.01a1.1 1.1 0 1 0-2.193 0v11.721l-.728 13.133v.026a1.551 1.551 0 0 1-1.549 1.549h-3.849a1.551 1.551 0 0 1-1.549-1.549v-.026l-.728-13.21V30.834a1.1 1.1 0 1 0-2.193 0v10.01a1.14 1.14 0 0 1-.235.024 1.154 1.154 0 0 1-1.153-1.153Z"/><path data-name="Path 100937" d="M9.977 13.866a6.933 6.933 0 0 0 4.9-11.835 6.933 6.933 0 0 0-9.8 9.8 6.888 6.888 0 0 0 4.9 2.031m0-11.673a4.74 4.74 0 1 1-4.74 4.74 4.746 4.746 0 0 1 4.74-4.74"/><path data-name="Path 100938" d="M4.31 51.055a3.746 3.746 0 0 0 3.742 3.729H11.9a3.746 3.746 0 0 0 3.742-3.729l.155-2.8c0-.035.005-.07.005-.1a1.1 1.1 0 0 0-2.193 0l-.159 2.866v.026a1.551 1.551 0 0 1-1.549 1.549H8.052A1.551 1.551 0 0 1 6.5 51.041v-.025l-.726-13.212V26.162a1.1 1.1 0 0 0-2.193 0v10.01a1.153 1.153 0 0 1-1.388-1.129V21.35a3.679 3.679 0 0 1 3.675-3.675h8.57a1.1 1.1 0 1 0 0-2.193h-8.57A5.868 5.868 0 0 0 0 21.35v13.693a3.35 3.35 0 0 0 3.346 3.346c.088 0 .176 0 .264-.01Z"/><path data-name="Path 100939" d="M40.954 13.866a6.933 6.933 0 0 0 4.9-11.835 6.933 6.933 0 1 0-9.8 9.8 6.887 6.887 0 0 0 4.9 2.031m0-11.673a4.74 4.74 0 1 1-4.74 4.74 4.745 4.745 0 0 1 4.74-4.74"/><path data-name="Path 100940" d="M36.492 15.482a1.1 1.1 0 0 0 0 2.193h8.57a3.679 3.679 0 0 1 3.675 3.675v13.693a1.153 1.153 0 0 1-1.388 1.129v-10.01a1.1 1.1 0 1 0-2.193 0v11.642l-.168 2.6v.045a1.1 1.1 0 0 0 2.2 0v-.039l.132-2.033c.088.007.176.01.264.01a3.35 3.35 0 0 0 3.346-3.346V21.35a5.868 5.868 0 0 0-5.868-5.868Z"/></g></svg>